<svg id="Layer_1" data-name="Layer 1" xmlns="http://www.w3.org/2000/svg" viewBox="0 0 171.58879 37.23364"><defs><style>.cls-1{fill:#764ea8;}.cls-2{fill:#fff;}.cls-3{fill:#343434;}</style></defs><rect class="cls-1" x="7.50962" y="2.55622" width="18.21099" height="32.12121"/><path class="cls-2" d="M19.93512,18.71057l-7.48291-7.51416.814-.814,8.29687,8.32812-8.29687,8.29688-.814-.814Z"/><path class="cls-3" d="M33.41364,25.004a7.83084,7.83084,0,0,0,2.81787,2.78613,7.46847,7.46847,0,0,0,3.835,1.03321,8.62232,8.62232,0,0,0,3.85108-.84522A6.68541,6.68541,0,0,0,46.626,25.63a6.22643,6.22643,0,0,0,1.01758-3.38135h1.127a7.08825,7.08825,0,0,1-1.14257,3.9292,7.958,7.958,0,0,1-3.13086,2.78662,9.5855,9.5855,0,0,1-4.43067,1.01758,8.59719,8.59719,0,0,1-4.41455-1.18994,8.88108,8.88108,0,0,1-3.22461-3.209,8.50876,8.50876,0,0,1-1.18994-4.39892V16.04944a8.59973,8.59973,0,0,1,1.17432-4.39893,8.80342,8.80342,0,0,1,3.19336-3.209A8.51334,8.51334,0,0,1,40.004,7.25159,9.52186,9.52186,0,0,1,44.4029,8.26917a8.08259,8.08259,0,0,1,3.14648,2.78662,7.02145,7.02145,0,0,1,1.15869,3.9292H47.58063a6.1513,6.1513,0,0,0-1.0332-3.38135,6.82347,6.82347,0,0,0-2.708-2.34815A8.524,8.524,0,0,0,40.004,8.41028a7.38613,7.38613,0,0,0-3.81933,1.0332A7.74475,7.74475,0,0,0,33.398,12.22962a7.39033,7.39033,0,0,0-1.03321,3.81982v5.13477A7.30226,7.30226,0,0,0,33.41364,25.004Z"/><path class="cls-3" d="M67.524,8.45715a8.94731,8.94731,0,0,1,3.272,3.27149A8.79517,8.79517,0,0,1,72.001,16.23743v4.75879A8.79517,8.79517,0,0,1,70.796,25.505a8.94352,8.94352,0,0,1-3.272,3.27148,9.03323,9.03323,0,0,1-9.01709,0A8.93852,8.93852,0,0,1,55.23542,25.505a8.79093,8.79093,0,0,1-1.20557-4.50879V16.23743a8.79093,8.79093,0,0,1,1.20557-4.50879A8.94231,8.94231,0,0,1,58.5069,8.45715a9.03329,9.03329,0,0,1,9.01709,0ZM56.23737,24.92542A7.759,7.759,0,0,0,59.086,27.77454a7.88525,7.88525,0,0,0,7.85889,0A7.77118,7.77118,0,0,0,69.794,24.92542a7.66941,7.66941,0,0,0,1.04883-3.9292V16.23743a7.67193,7.67193,0,0,0-1.04883-3.9292,7.77846,7.77846,0,0,0-2.84912-2.84912,7.88525,7.88525,0,0,0-7.85889,0,7.7662,7.7662,0,0,0-2.84863,2.84912,7.6628,7.6628,0,0,0-1.04932,3.9292v4.75879A7.66029,7.66029,0,0,0,56.23737,24.92542Z"/><path class="cls-3" d="M90.36384,8.91126a8.92892,8.92892,0,0,1,3.209,3.209,8.51462,8.51462,0,0,1,1.18994,4.39893v4.19531a8.51334,8.51334,0,0,1-1.18994,4.39892,8.92512,8.92512,0,0,1-3.209,3.209,8.51,8.51,0,0,1-4.39893,1.18994H77.91852V7.72131h8.04639A8.51466,8.51466,0,0,1,90.36384,8.91126Zm3.24023,7.60791a7.39045,7.39045,0,0,0-1.0332-3.81983,7.71726,7.71726,0,0,0-2.80225-2.78662,7.4745,7.4745,0,0,0-3.835-1.0332H79.07673V28.35413h6.85693a7.47451,7.47451,0,0,0,3.835-1.03321,7.71341,7.71341,0,0,0,2.80225-2.78662,7.38914,7.38914,0,0,0,1.0332-3.81982Z"/><path class="cls-3" d="M101.83845,7.72131h15.3413V8.87952h-14.1831v8.82959h12.33594v1.1582H102.99665v9.48682h14.1831v1.1582h-15.3413Z"/><path class="cls-3" d="M131.92536,7.72131h1.22119l8.95459,21.791H140.8487l-2.94336-7.20117H127.16657l-2.97412,7.20117h-1.22119Zm-4.28906,13.4629h9.7998l-4.91553-11.96Z"/><path class="cls-1" d="M147.29792,29.57483h16.78125v1.15869H147.29792Z"/></svg>